<?xml version="1.0" encoding="UTF-8"?>
<svg xmlns="http://www.w3.org/2000/svg" xmlns:xlink="http://www.w3.org/1999/xlink" width="162pt" height="162pt" viewBox="0 0 162 162" version="1.1">
<g id="surface1">
<path style=" stroke:none;fill-rule:evenodd;fill:#0098D0;fill-opacity:1;" d="M 0.492188 0.488281 L 161.507813 0.488281 L 161.507813 161.507813 L 0.492188 161.507813 Z M 17.273438 87.371094 L 87.816406 87.371094 C 86.800781 93.574219 84.054688 98.515625 79.636719 102.191406 C 75.21875 105.871094 69.589844 107.710938 62.726563 107.710938 C 54.519531 107.710938 47.464844 104.828125 41.5625 99.089844 L 23.0625 107.789063 C 27.675781 114.324219 33.191406 119.15625 39.644531 122.3125 C 46.066406 125.441406 53.699219 127.007813 62.5625 127.007813 C 76.289063 127.007813 87.457031 122.671875 96.078125 114.023438 C 96.691406 113.410156 97.277344 112.777344 97.84375 112.144531 L 97.84375 124.757813 L 119.640625 124.757813 L 119.640625 89.378906 L 119.558594 85.121094 C 119.558594 72.878906 120.710938 64.699219 123.042969 60.5 C 125.378906 56.328125 128.230469 54.242188 131.605469 54.242188 C 133.28125 54.242188 135.394531 54.871094 137.976563 56.164063 L 144.808594 37.253906 C 141.683594 35.769531 138.71875 35 135.890625 35 C 131.855469 35 128.148438 36.125 124.773438 38.402344 C 121.398438 40.652344 118.707031 43.949219 116.648438 48.285156 L 116.648438 37.253906 L 97.84375 37.253906 L 97.84375 50.089844 C 97.292969 49.460938 96.726563 48.835938 96.132813 48.226563 C 87.511719 39.414063 76.726563 34.996094 63.769531 34.996094 C 49.992188 34.996094 38.792969 39.414063 30.144531 48.226563 C 21.527344 57.066406 17.191406 68.703125 17.191406 83.171875 Z M 39.3125 70.078125 C 40.769531 65.191406 43.621094 61.238281 47.878906 58.160156 C 52.132813 55.117188 57.097656 53.578125 62.726563 53.578125 C 68.820313 53.578125 74.203125 55.308594 78.8125 58.738281 C 81.695313 60.878906 84.386719 64.667969 86.855469 70.078125 L 39.3125 70.078125 "/>
<path style=" stroke:none;fill-rule:nonzero;fill:white;fill-opacity:1;" d="M 17.273438 87.371094 L 87.816406 87.371094 C 86.800781 93.574219 84.054688 98.515625 79.636719 102.191406 C 75.21875 105.871094 69.589844 107.710938 62.726563 107.710938 C 54.519531 107.710938 47.464844 104.828125 41.5625 99.089844 L 23.0625 107.789063 C 27.675781 114.324219 33.191406 119.15625 39.644531 122.3125 C 46.066406 125.441406 53.699219 127.007813 62.5625 127.007813 C 76.289063 127.007813 87.460938 122.671875 96.078125 114.023438 C 96.691406 113.410156 97.277344 112.777344 97.84375 112.144531 L 97.84375 124.757813 L 119.640625 124.757813 L 119.640625 89.378906 L 119.558594 85.121094 C 119.558594 72.878906 120.710938 64.699219 123.042969 60.5 C 125.378906 56.328125 128.230469 54.242188 131.609375 54.242188 C 133.28125 54.242188 135.394531 54.871094 137.976563 56.164063 L 144.808594 37.253906 C 141.683594 35.769531 138.71875 35 135.890625 35 C 131.855469 35 128.148438 36.125 124.773438 38.402344 C 121.398438 40.652344 118.707031 43.949219 116.648438 48.285156 L 116.648438 37.253906 L 97.84375 37.253906 L 97.84375 50.089844 C 97.292969 49.460938 96.726563 48.835938 96.132813 48.226563 C 87.511719 39.414063 76.726563 34.996094 63.769531 34.996094 C 49.992188 34.996094 38.792969 39.414063 30.144531 48.226563 C 21.527344 57.066406 17.191406 68.703125 17.191406 83.171875 Z M 39.3125 70.078125 C 40.769531 65.191406 43.625 61.238281 47.878906 58.160156 C 52.132813 55.117188 57.101563 53.578125 62.726563 53.578125 C 68.824219 53.578125 74.203125 55.308594 78.8125 58.738281 C 81.695313 60.878906 84.386719 64.667969 86.855469 70.078125 L 39.3125 70.078125 "/>
</g>
</svg>
